<!-- Created with Inkscape (http://www.inkscape.org/) -->
<svg width="33.488mm" height="44.048mm" version="1.1" viewBox="0 0 33.488 44.048" xmlns="http://www.w3.org/2000/svg" xmlns:xlink="http://www.w3.org/1999/xlink">
 <defs>
  <linearGradient id="c" x1="87.077" x2="73.79" y1="9.2241" y2="30.865" gradientTransform="translate(85.441 94.187)" gradientUnits="userSpaceOnUse" xlink:href="#a" spreadMethod="reflect"/>
  <linearGradient id="a">
   <stop stop-color="#ff5900" offset="0"/>
   <stop stop-color="#63bb98" offset=".58857"/>
   <stop stop-color="#248df0" offset="1"/>
  </linearGradient>
  <linearGradient id="b" x1="68.204" x2="58.481" y1="10.877" y2="18.78" gradientTransform="translate(85.441 94.187)" gradientUnits="userSpaceOnUse" spreadMethod="reflect">
   <stop stop-color="#ff5900" offset="0"/>
   <stop stop-color="#248df0" offset=".45992"/>
   <stop stop-color="#63bb98" offset="1"/>
  </linearGradient>
  <linearGradient id="d" x1="22.571" x2="33.356" y1="5.3821" y2="5.3821" gradientUnits="userSpaceOnUse" xlink:href="#a"/>
 </defs>
 <path transform="translate(-139.03 -96.847)" d="m139.16 96.979v43.783h33.223v-33.284h-10.784v-10.5zm22.439 0 10.784 10.5v-5.2e-4zm-17.582 12.147h23.509c1.5024 0 2.712 1.2095 2.712 2.712v24.878c0 1.5024-1.2096 2.712-2.712 2.712h-23.509c-1.5024 0-2.712-1.2096-2.712-2.712v-24.878c0-1.5024 1.2095-2.712 2.712-2.712zm12.747 2.2826c-0.48226 0-0.87075 0.38797-0.87075 0.87023 0 0.48225 0.38849 0.87074 0.87075 0.87074h3.7378c0.48226 0 0.87024-0.38849 0.87024-0.87074 0-0.48226-0.38798-0.87023-0.87024-0.87023zm6.472 0.0155c-0.47348 0-0.85472 0.38123-0.85472 0.85473s0.38124 0.85472 0.85472 0.85472h5.441c0.4735 0 0.85472-0.38122 0.85472-0.85472s-0.38122-0.85473-0.85472-0.85473zm-9.2697 0.01c-0.45801 0.0115-0.82321 0.38403-0.82321 0.84491 0 0.46819 0.37723 0.84491 0.84543 0.84491h0.0667c0.46819 0 0.84543-0.37672 0.84543-0.84491 0-0.4682-0.37724-0.84491-0.84543-0.84491h-0.0667c-7e-3 0-0.0149-1.9e-4 -0.0222 0zm-10.859 3e-3c-0.46646 0-0.84181 0.37534-0.84181 0.84181 0 0.46646 0.37535 0.84181 0.84181 0.84181h8.0667c0.46646 0 0.84232-0.37535 0.84232-0.84181 0-0.46647-0.37586-0.84181-0.84232-0.84181zm16.407 2.574c-0.48226 0-0.87075 0.38797-0.87075 0.87023s0.38849 0.87075 0.87075 0.87075h3.7378c0.48226 0 0.87024-0.38849 0.87024-0.87075s-0.38798-0.87023-0.87024-0.87023zm-16.418 0.0176c-0.46223 0.0116-0.83096 0.38753-0.83096 0.85266 0 0.47251 0.38067 0.85266 0.85318 0.85266h0.0351c0.47251 0 0.85266-0.38015 0.85266-0.85266s-0.38015-0.85266-0.85266-0.85266h-0.0351c-7e-3 0-0.0149-1.8e-4 -0.0222 0zm13.628 0c-0.46223 0.0116-0.83096 0.38753-0.83096 0.85266 0 0.47251 0.38067 0.85266 0.85318 0.85266h0.0351c0.47251 0 0.85266-0.38015 0.85266-0.85266s-0.38015-0.85266-0.85266-0.85266h-0.0351c-7e-3 0-0.0149-1.8e-4 -0.0222 0zm9.2165 0c-0.46223 0.0116-0.83044 0.38753-0.83044 0.85266 0 0.47251 0.38015 0.85266 0.85266 0.85266h0.0351c0.47251 0 0.85318-0.38015 0.85318-0.85266s-0.38067-0.85266-0.85318-0.85266h-0.0351c-7e-3 0-0.0149-1.8e-4 -0.0222 0zm-20.075 3e-3c-0.47076 0-0.85008 0.3788-0.85008 0.84956s0.37932 0.84956 0.85008 0.84956h8.0512c0.47076 0 0.84956-0.3788 0.84956-0.84956s-0.3788-0.84956-0.84956-0.84956zm22.826 0.017c-0.47251 0-0.85267 0.38015-0.85267 0.85267 0 0.47249 0.38016 0.85317 0.85267 0.85317h0.0356c0.47251 0 0.85266-0.38068 0.85266-0.85317 0-0.47252-0.38015-0.85267-0.85266-0.85267zm-3.6876 2.5466c-0.48226 0-0.87024 0.38797-0.87024 0.87023s0.38798 0.87075 0.87024 0.87075h3.7378c0.48226 0 0.87075-0.38849 0.87075-0.87075s-0.38849-0.87023-0.87075-0.87023zm-21.929 8e-3c-0.47799 0-0.863 0.38448-0.863 0.86248s0.38501 0.863 0.863 0.863h5.4245c0.47799 0 0.86248-0.385 0.86248-0.863s-0.38449-0.86248-0.86248-0.86248zm8.1711 9e-3c-0.47264 0-0.85318 0.38054-0.85318 0.85318s0.38054 0.85318 0.85318 0.85318h0.0346c0.47264 0 0.85318-0.38054 0.85318-0.85318s-0.38054-0.85318-0.85318-0.85318zm10.969 0c-0.47264 0-0.85318 0.38054-0.85318 0.85318s0.38054 0.85318 0.85318 0.85318h0.0351c0.47264 0 0.85266-0.38054 0.85266-0.85318s-0.38002-0.85318-0.85266-0.85318zm-8.1809 5.2e-4c-0.47256 0-0.85318 0.3801-0.85318 0.85266s0.38062 0.85318 0.85318 0.85318h5.4441c0.47256 0 0.85318-0.38062 0.85318-0.85318s-0.38062-0.85266-0.85318-0.85266zm9.2501 2.5637c-0.48225 0-0.87023 0.38849-0.87023 0.87074 0 0.48226 0.38798 0.87024 0.87023 0.87024h5.409c0.48225 0 0.87074-0.38798 0.87074-0.87024 0-0.48225-0.38849-0.87074-0.87074-0.87074zm-20.17 0.0227c-0.46983 0-0.84801 0.37818-0.84801 0.84801v0.045c0 0.46983 0.37818 0.84801 0.84801 0.84801h13.689c0.46983 0 0.84801-0.37818 0.84801-0.84801v-0.045c0-0.46983-0.37818-0.84801-0.84801-0.84801zm15.834 0.0119c-0.48225 0-0.87023 0.38849-0.87023 0.87075 0 0.48225 0.38798 0.87023 0.87023 0.87023 0.48226 0 0.87075-0.38798 0.87075-0.87023 0-0.48226-0.38849-0.87075-0.87075-0.87075zm2.1684 0c-0.48226 0-0.87075 0.38849-0.87075 0.87075 0 0.48225 0.38849 0.87023 0.87075 0.87023 0.48225 0 0.87023-0.38798 0.87023-0.87023 0-0.48226-0.38798-0.87075-0.87023-0.87075zm2.1678 2.8799c-0.48225 0-0.87023 0.38849-0.87023 0.87075 0 0.48223 0.38798 0.87023 0.87023 0.87023h5.409c0.48225 0 0.87074-0.388 0.87074-0.87023 0-0.48226-0.38849-0.87075-0.87074-0.87075zm-20.17 0.0227c-0.46983 0-0.84801 0.37818-0.84801 0.84802v0.045c0 0.46983 0.37818 0.84801 0.84801 0.84801h7.3014c0.46983 0 0.84853-0.37818 0.84853-0.84801v-0.045c0-0.46984-0.3787-0.84802-0.84853-0.84802zm9.7389 0c-0.47176 0.0119-0.84801 0.39551-0.84801 0.87024 0 0.48225 0.38849 0.87074 0.87075 0.87074 0.48225 0 0.87023-0.38849 0.87023-0.87074 0-0.48226-0.38798-0.87024-0.87023-0.87024-8e-3 0-0.0153-1.8e-4 -0.0227 0zm2.3678 0c-0.47176 0.0119-0.84801 0.39551-0.84801 0.87024 0 0.48225 0.38849 0.87074 0.87075 0.87074s0.87023-0.38849 0.87023-0.87074c0-0.48226-0.38797-0.87024-0.87023-0.87024-8e-3 0-0.0153-1.8e-4 -0.0227 0zm2.1999 0.0372c-0.48226 0-0.87023 0.38798-0.87023 0.87023 0 0.48226 0.38797 0.87075 0.87023 0.87075h3.7378c0.48223 0 0.87074-0.38849 0.87074-0.87075 0-0.48225-0.38851-0.87023-0.87074-0.87023zm-6.7608 2.8768c-0.48226 0-0.87023 0.38849-0.87023 0.87075 0 0.48225 0.38797 0.87023 0.87023 0.87023s0.87075-0.38798 0.87075-0.87023c0-0.48226-0.38849-0.87075-0.87075-0.87075zm8.57 0.0253c-0.48226 0-0.87023 0.38849-0.87023 0.87075 0 0.48225 0.38797 0.87023 0.87023 0.87023s0.87075-0.38798 0.87075-0.87023c0-0.48226-0.38849-0.87075-0.87075-0.87075zm2.1306 0c-0.46983 0-0.84801 0.37818-0.84801 0.84801v0.045c0 0.46983 0.37818 0.84801 0.84801 0.84801h7.3019c0.46983 0 0.84801-0.37818 0.84801-0.84801v-0.045c0-0.46983-0.37818-0.84801-0.84801-0.84801zm-18.278 0.0227c-0.48226 0-0.87024 0.38797-0.87024 0.87023s0.38798 0.87075 0.87024 0.87075h5.4095c0.48223 0 0.87023-0.38849 0.87023-0.87075s-0.388-0.87023-0.87023-0.87023zm10.257 0.0269c-0.48225 0-0.87074 0.38797-0.87074 0.87023s0.38849 0.87075 0.87074 0.87075h3.7378c0.48226 0 0.87023-0.38849 0.87023-0.87075s-0.38797-0.87023-0.87023-0.87023zm-2.7022 2.8531c-0.47175 0.0119-0.84749 0.39551-0.84749 0.87023 0 0.48225 0.38797 0.87074 0.87023 0.87074s0.87075-0.38849 0.87075-0.87074c0-0.48226-0.38849-0.87023-0.87075-0.87023-8e-3 0-0.0153-1.9e-4 -0.0227 0zm2.1684 0c-0.47176 0.0119-0.84801 0.39551-0.84801 0.87023 0 0.48225 0.38797 0.87074 0.87023 0.87074 0.48225 0 0.87075-0.38849 0.87075-0.87074 0-0.48226-0.3885-0.87023-0.87075-0.87023-8e-3 0-0.0147-1.9e-4 -0.0222 0zm2.1678 0.0119c-0.46983 0-0.84801 0.37818-0.84801 0.84801v0.045c0 0.46983 0.37818 0.84801 0.84801 0.84801h13.689c0.46983 0 0.84801-0.37818 0.84801-0.84801v-0.045c0-0.46983-0.37818-0.84801-0.84801-0.84801zm-11.891 0.0222c-0.48226 0-0.87024 0.38849-0.87024 0.87075s0.38798 0.87023 0.87024 0.87023h5.4095c0.48223 0 0.87023-0.38797 0.87023-0.87023s-0.388-0.87075-0.87023-0.87075zm-0.0486 2.5818c-0.48226 0-0.87023 0.38849-0.87023 0.87074 0 0.48226 0.38797 0.87024 0.87023 0.87024h3.7378c0.48225 0 0.87074-0.38798 0.87074-0.87024 0-0.48225-0.38849-0.87074-0.87074-0.87074zm20.243 8e-3c-0.47799 0-0.86248 0.385-0.86248 0.86299 0 0.478 0.38449 0.86248 0.86248 0.86248h5.4245c0.47799 0 0.86299-0.38448 0.86299-0.86248 0-0.47799-0.385-0.86299-0.86299-0.86299zm-13.772 0.01c-0.46235 0.0116-0.83148 0.38792-0.83148 0.85317 0 0.47264 0.38054 0.85318 0.85318 0.85318h0.0346c0.47264 0 0.85318-0.38054 0.85318-0.85318 0-0.47263-0.38054-0.85317-0.85318-0.85317h-0.0346c-7e-3 0-0.0144-1.9e-4 -0.0217 0zm2.7936 0c-0.47255 0-0.85317 0.38062-0.85317 0.85317 0 0.47256 0.38062 0.85267 0.85317 0.85267h5.4441c0.47255 0 0.85317-0.38011 0.85317-0.85267 0-0.47255-0.38062-0.85317-0.85317-0.85317zm8.1752 0c-0.46235 0.0116-0.83096 0.38792-0.83096 0.85317 0 0.47264 0.38054 0.85318 0.85318 0.85318h0.0346c0.47264 0 0.85318-0.38054 0.85318-0.85318 0-0.47263-0.38054-0.85317-0.85318-0.85317h-0.0346c-7e-3 0-0.0149-1.9e-4 -0.0222 0zm-17.446 2.5642c-0.46222 0.0116-0.83095 0.38753-0.83095 0.85266 0 0.47251 0.38015 0.85318 0.85266 0.85318h0.0351c0.47251 0 0.85317-0.38067 0.85317-0.85318s-0.38066-0.85266-0.85317-0.85266h-0.0351c-7e-3 0-0.0144-1.8e-4 -0.0217 0zm5.4968 3e-3c-0.48225 0-0.87023 0.3885-0.87023 0.87075 0 0.48226 0.38798 0.87023 0.87023 0.87023h3.7378c0.48226 0 0.87075-0.38797 0.87075-0.87023 0-0.48225-0.38849-0.87075-0.87075-0.87075zm-2.7461 0.0176c-0.47251 0-0.85318 0.38067-0.85318 0.85318s0.38067 0.85266 0.85318 0.85266h0.0351c0.47251 0 0.85266-0.38015 0.85266-0.85266s-0.38015-0.85318-0.85266-0.85318zm9.2165 0c-0.47251 0-0.85266 0.38067-0.85266 0.85318s0.38015 0.85266 0.85266 0.85266h0.0351c0.47251 0 0.85318-0.38015 0.85318-0.85266s-0.38067-0.85318-0.85318-0.85318zm13.628 0c-0.47251 0-0.85318 0.38067-0.85318 0.85318s0.38067 0.85266 0.85318 0.85266h0.0351c0.47251 0 0.85266-0.38015 0.85266-0.85266s-0.38015-0.85318-0.85266-0.85318zm-10.763 3e-3c-0.47076 0-0.84956 0.37931-0.84956 0.85007 0 0.47077 0.3788 0.84956 0.84956 0.84956h8.0512c0.47076 0 0.84956-0.37879 0.84956-0.84956 0-0.47076-0.3788-0.85007-0.84956-0.85007zm-6.5851 2.5818c-0.48225 0-0.87023 0.38849-0.87023 0.87075 0 0.48225 0.38798 0.87023 0.87023 0.87023h3.7378c0.48226 0 0.87075-0.38798 0.87075-0.87023 0-0.48226-0.38849-0.87075-0.87075-0.87075zm-8.1752 0.016c-0.4735 0-0.85473 0.38123-0.85473 0.85473s0.38123 0.85473 0.85473 0.85473h5.441c0.47351 0 0.85422-0.38123 0.85422-0.85473s-0.38071-0.85473-0.85422-0.85473zm14.621 9e-3c-0.46819 0-0.84491 0.37723-0.84491 0.84543 0 0.46819 0.37672 0.84491 0.84491 0.84491h0.0672c0.4682 0 0.84491-0.37672 0.84491-0.84491 0-0.4682-0.37671-0.84543-0.84491-0.84543zm2.8815 3e-3c-0.46646 0-0.84233 0.37587-0.84233 0.84233s0.37587 0.84181 0.84233 0.84181h8.0667c0.46646 0 0.84181-0.37535 0.84181-0.84181s-0.37535-0.84233-0.84181-0.84233z" fill="url(#c)" stroke="url(#b)" stroke-linejoin="round" stroke-width=".265"/>
 <path d="m33.356 10.632-10.784-10.5v10.5z" fill="url(#d)" style="paint-order:markers fill stroke"/>
</svg>
